<?xml version="1.0"?>
<svg width="640" height="480" xmlns="http://www.w3.org/2000/svg" xmlns:svg="http://www.w3.org/2000/svg">
 <!-- Created with SVG-edit - https://github.com/SVG-Edit/svgedit-->
 <g class="layer">
  <title>Layer 1</title>
  <g id="svg_6">
   <text fill="#ff7f00" font-family="Monospace" font-size="24" id="svg_1" stroke="#000000" stroke-dasharray="null" stroke-linecap="null" stroke-linejoin="null" stroke-width="0" text-anchor="middle" transform="matrix(14.6164 0 0 9.76863 -776.596 -670.217)" x="75.542445" xml:space="preserve" y="107.754211">CCS</text>
   <path d="m449.138552,120.280025c0,-15.37563 -15.205228,-27.841517 -33.959604,-27.841517l0,0c6.14276,-5.042311 9.949754,-11.999582 9.949754,-19.690506c0,-15.381848 -15.205228,-27.847734 -33.967188,-27.847734c-9.373396,0 -17.86709,3.114917 -24.017434,8.157229c0,-15.37563 -15.205228,-27.841517 -33.959604,-27.841517c-18.761961,0 -33.967188,12.465886 -33.967188,27.841517c-6.150344,-5.036094 -14.636454,-8.157229 -24.017434,-8.157229c-18.761961,0 -33.967188,12.465886 -33.967188,27.847734c0,7.684706 3.79941,14.648194 9.949754,19.684288c-18.761961,0 -33.967188,12.465886 -33.967188,27.847734c0,15.381848 15.205228,27.847734 33.967188,27.847734c-6.150344,5.036094 -9.949754,11.999582 -9.949754,19.690506c0,15.37563 15.205228,27.841517 33.967188,27.841517c9.373396,0 17.86709,-3.114917 24.017434,-8.157229c0,15.37563 15.205228,27.847734 33.967188,27.847734c18.754378,0 33.959604,-12.472104 33.959604,-27.847734l0,0c6.150344,5.042311 14.644036,8.157229 24.017434,8.157229c18.761961,0 33.959604,-12.465886 33.959604,-27.841517c0,-7.690924 -3.79941,-14.654412 -9.949754,-19.696723c0.007584,0 0.007584,0 0.007584,0c18.761961,0 33.959604,-12.45967 33.959604,-27.841517l0,0.000001zm-58.325886,32.467263c0.121339,0 0.235093,-0.006218 0.356432,-0.006218c10.154514,0 18.382778,6.745879 18.382778,15.077195c0,8.318881 -8.228266,15.070978 -18.382778,15.070978s-18.382778,-6.752096 -18.382778,-15.070978c0,-0.105696 0.007584,-0.192739 0.007584,-0.292218l-26.853721,-22.022031l0,31.142957c3.465729,2.735655 5.634655,6.590444 5.634655,10.855581c0,8.325099 -8.235848,15.070978 -18.382778,15.070978c-10.154514,0 -18.390362,-6.745879 -18.390362,-15.070978c0,-4.271354 2.168925,-8.119924 5.634655,-10.855581l0,-31.142957l-26.853721,22.022031c0,0.099478 0.007584,0.192739 0.007584,0.292218c0,8.318881 -8.228266,15.070978 -18.382778,15.070978s-18.382778,-6.752096 -18.382778,-15.070978c0,-8.331316 8.228266,-15.077195 18.382778,-15.077195c0.113755,0 0.235093,0.006218 0.348848,0.006218l26.861304,-22.015813l-37.978941,0c-3.336808,2.847569 -8.038674,4.619528 -13.241061,4.619528c-10.154514,0 -18.382778,-6.745879 -18.382778,-15.070978s8.228266,-15.070978 18.382778,-15.070978c5.202387,0 9.896668,1.771959 13.241061,4.625746l37.978941,0l-26.861304,-22.022031c-0.113755,0 -0.235093,0.006218 -0.348848,0.006218c-10.154514,0 -18.382778,-6.745879 -18.382778,-15.070978s8.235848,-15.070978 18.390362,-15.070978s18.382778,6.745879 18.382778,15.070978c0,0.093261 -0.007584,0.192739 -0.007584,0.286l26.853721,22.022031l0,-31.136739c-3.465729,-2.741873 -5.634655,-6.590444 -5.634655,-10.855581c0,-8.325099 8.235848,-15.077195 18.390362,-15.077195c10.14693,0 18.382778,6.745879 18.382778,15.077195c0,4.265137 -2.168925,8.113707 -5.634655,10.855581l0,31.136739l26.853721,-22.022031c0,-0.093261 -0.007584,-0.192739 -0.007584,-0.286c0,-8.325099 8.228266,-15.070978 18.382778,-15.070978s18.382778,6.745879 18.382778,15.070978c0,8.325099 -8.228266,15.070978 -18.382778,15.070978c-0.121339,0 -0.235093,-0.006218 -0.356432,-0.006218l-26.853721,22.022031l37.978941,0c3.344392,-2.847569 8.046257,-4.625746 13.248645,-4.625746c10.14693,0 18.375195,6.745879 18.375195,15.070978s-8.228266,15.070978 -18.375195,15.070978c-5.20997,0 -9.904252,-1.771959 -13.248645,-4.619528l-37.978941,0l26.846137,22.015813z" fill="#3f007f" id="svg_2" stroke="#000000" stroke-dasharray="null" stroke-linecap="null" stroke-linejoin="null" stroke-width="0"/>
  </g>
 </g>
</svg>